<svg xmlns="http://www.w3.org/2000/svg" xmlns:xlink="http://www.w3.org/1999/xlink" width="32" height="32" viewBox="0 0 32 32">
  <defs>
    <linearGradient id="linear-gradient" x1="0.918" y1="0.773" x2="0.172" y2="0.123" gradientUnits="objectBoundingBox">
      <stop offset="0" stop-color="#642b73"/>
      <stop offset="1" stop-color="#c6426e"/>
    </linearGradient>
    <linearGradient id="linear-gradient-2" x1="0.057" y1="0.03" x2="0.966" y2="0.968" gradientUnits="objectBoundingBox">
      <stop offset="0" stop-color="#fff"/>
      <stop offset="1" stop-color="#cfcfcf"/>
    </linearGradient>
  </defs>
  <g id="favicon" transform="translate(-408 72)">
    <circle id="Ellipse_1" data-name="Ellipse 1" cx="16" cy="16" r="16" transform="translate(408 -72)" fill="url(#linear-gradient)"/>
    <path id="Path_5" data-name="Path 5" d="M6,3A3,3,0,0,0,3,6V18a3,3,0,0,0,3,3H18a3,3,0,0,0,3-3V6a3,3,0,0,0-3-3ZM7.5,4.5a.75.75,0,0,0-.75.75V16.5a.75.75,0,0,0,1.085.67L12,15.089l4.165,2.083A.75.75,0,0,0,17.25,16.5V5.25a.75.75,0,0,0-.75-.75Z" transform="translate(412 -68)" fill-rule="evenodd" fill="url(#linear-gradient-2)"/>
  </g>
</svg>
